<svg width="126" height="17" viewBox="0 0 126 17" fill="none" xmlns="http://www.w3.org/2000/svg">
<g clip-path="url(#clip0)">
<path fill-rule="evenodd" clip-rule="evenodd" d="M50.4625 11.0676C50.4625 12.2041 50.7181 13.077 51.2289 13.6873C51.7398 14.2972 52.4099 14.6022 53.2396 14.6022C53.9453 14.6022 54.5539 14.2901 55.0649 13.6663C55.5756 13.0422 55.8308 12.1481 55.8308 10.9839C55.8308 10.2311 55.7246 9.58265 55.512 9.03884C55.2995 8.49503 54.998 8.075 54.6071 7.77855C54.2164 7.48248 53.7605 7.33445 53.2396 7.33445C52.7046 7.33445 52.228 7.48248 51.8099 7.77855C51.3918 8.075 51.0626 8.50363 50.8228 9.06501C50.5829 9.6262 50.4625 10.2938 50.4625 11.0676ZM50.3292 2.58629V6.94708C50.857 6.38971 51.3951 5.96261 51.9437 5.66635C52.4922 5.3699 53.171 5.22187 53.9799 5.22187C54.9123 5.22187 55.7299 5.44649 56.4324 5.89613C57.1352 6.34597 57.6803 6.99789 58.0678 7.85209C58.4552 8.70591 58.6488 9.71846 58.6488 10.8899C58.6488 11.7544 58.5407 12.5473 58.3249 13.2692C58.109 13.9906 57.7951 14.6164 57.384 15.146C56.9725 15.6761 56.4736 16.0856 55.8875 16.375C55.3011 16.6642 54.655 16.809 53.9489 16.809C53.517 16.809 53.1108 16.7567 52.73 16.6524C52.3497 16.5475 52.0256 16.4098 51.7583 16.2392C51.491 16.0682 51.263 15.8921 51.0746 15.7107C50.8858 15.5296 50.6375 15.2576 50.329 14.8951V15.1778C50.329 15.7143 50.2022 16.1206 49.9485 16.3958C49.6946 16.6713 49.3726 16.809 48.9818 16.809C48.5841 16.809 48.2668 16.6715 48.0305 16.3958C47.794 16.1206 47.6758 15.7145 47.6758 15.1778V1.75692C47.6758 1.17816 47.7908 0.740742 48.0203 0.444483C48.2502 0.148034 48.5706 0 48.9818 0C49.4141 0 49.7461 0.141348 49.9795 0.423472C50.2124 0.705977 50.3292 1.10863 50.3292 1.63124V2.58629ZM95.7298 13.0617C95.7298 13.8525 95.5408 14.5295 95.163 15.0929C94.7848 15.6562 94.2265 16.0831 93.4879 16.3735C92.749 16.6638 91.8505 16.809 90.7922 16.809C89.7819 16.809 88.9162 16.6516 88.1944 16.3368C87.4731 16.0218 86.9403 15.6282 86.5967 15.156C86.2532 14.6834 86.0812 14.2095 86.0812 13.7335C86.0812 13.4185 86.1913 13.1492 86.4111 12.9252C86.6314 12.7013 86.9095 12.5894 87.2462 12.5894C87.5419 12.5894 87.7684 12.6627 87.9267 12.8098C88.0847 12.9569 88.2359 13.1632 88.38 13.429C88.6687 13.94 89.0142 14.3214 89.4162 14.5732C89.8182 14.8253 90.3661 14.9512 91.0603 14.9512C91.6237 14.9512 92.0857 14.8232 92.4466 14.568C92.8076 14.3127 92.9877 14.0204 92.9877 13.6913C92.9877 13.1876 92.8006 12.8203 92.4258 12.5892C92.0516 12.3582 91.4349 12.138 90.5756 11.9277C89.6067 11.6832 88.8182 11.4259 88.2101 11.1566C87.6019 10.8869 87.1159 10.532 86.7515 10.0911C86.3873 9.64989 86.2051 9.10761 86.2051 8.4639C86.2051 7.8901 86.3735 7.34763 86.7102 6.83686C87.047 6.32591 87.5432 5.9181 88.1997 5.61382C88.8562 5.30954 89.6482 5.1573 90.5756 5.1573C91.3041 5.1573 91.9585 5.23428 92.5393 5.38843C93.1202 5.54219 93.6045 5.74867 93.9929 6.00769C94.3813 6.26651 94.6768 6.5534 94.8794 6.86838C95.0821 7.18317 95.1835 7.49108 95.1835 7.79211C95.1835 8.12103 95.0754 8.39036 94.8588 8.60028C94.6422 8.81039 94.3348 8.91545 93.9361 8.91545C93.6474 8.91545 93.4019 8.8314 93.199 8.66331C92.9962 8.49542 92.7643 8.24347 92.5034 7.90748C92.2902 7.62765 92.0395 7.40379 91.7508 7.2357C91.4623 7.06761 91.0705 6.98356 90.5756 6.98356C90.0674 6.98356 89.6444 7.09397 89.308 7.31458C88.9712 7.53482 88.8027 7.80969 88.8027 8.13861C88.8027 8.43945 88.9264 8.68604 89.1737 8.87858C89.4211 9.07093 89.7545 9.23024 90.1737 9.35611C90.5928 9.48218 91.1702 9.63594 91.9054 9.81798C92.7783 10.035 93.4912 10.2938 94.0445 10.5948C94.5975 10.8957 95.017 11.2509 95.3019 11.6603C95.5874 12.0698 95.7298 12.5366 95.7298 13.0617ZM98.3582 5.46388H98.6662V2.98646C98.6662 2.5267 98.6784 2.16645 98.7022 1.90534C98.7262 1.64403 98.793 1.41921 98.9023 1.23126C99.0121 1.03643 99.1693 0.877888 99.375 0.756022C99.5798 0.634157 99.8093 0.573034 100.063 0.573034C100.418 0.573034 100.74 0.708843 101.028 0.980461C101.217 1.15645 101.344 1.3891 101.392 1.64403C101.444 1.90515 101.469 2.2759 101.469 2.75667V5.46388H102.875C103.271 5.46388 103.574 5.55938 103.783 5.75116C103.992 5.94255 104.096 6.188 104.096 6.4877C104.096 6.87067 103.947 7.13866 103.65 7.29185C103.352 7.44524 102.926 7.52183 102.371 7.52183H101.469V12.766C101.469 13.2117 101.485 13.5549 101.516 13.7952C101.546 14.0353 101.629 14.2303 101.762 14.3799C101.895 14.5298 102.113 14.6047 102.414 14.6047C102.578 14.6047 102.801 14.5753 103.081 14.5159C103.362 14.4567 103.581 14.4271 103.739 14.4271C103.964 14.4271 104.168 14.5193 104.349 14.7039C104.531 14.8886 104.622 15.1166 104.622 15.3882C104.622 15.8478 104.375 16.1997 103.882 16.4434C103.389 16.6873 102.681 16.809 101.757 16.809C100.881 16.809 100.217 16.6592 99.7649 16.3599C99.3131 16.0602 99.017 15.6459 98.8768 15.1166C98.7364 14.5873 98.6662 13.8804 98.6662 12.9958V7.52183H97.9182C97.5143 7.52183 97.2061 7.42442 96.994 7.22939C96.7817 7.03437 96.6758 6.78701 96.6758 6.4877C96.6758 6.188 96.7872 5.94255 97.0095 5.75116C97.232 5.55938 97.5555 5.46388 97.9799 5.46388H98.3582ZM107.898 10.0714H113.041C112.972 9.09347 112.711 8.3619 112.257 7.87635C111.803 7.39099 111.206 7.14802 110.465 7.14802C109.758 7.14802 109.178 7.39424 108.724 7.88685C108.271 8.37928 107.995 9.10742 107.898 10.0714ZM113.446 11.6956H107.899C107.906 12.3452 108.035 12.9181 108.288 13.414C108.541 13.9102 108.877 14.2838 109.296 14.5352C109.715 14.7868 110.177 14.9124 110.683 14.9124C111.022 14.9124 111.332 14.8723 111.613 14.7921C111.893 14.7117 112.165 14.5858 112.428 14.4147C112.683 14.2496 112.927 14.0658 113.155 13.8647C113.377 13.6691 113.664 13.4036 114.018 13.0684C114.163 12.9423 114.371 12.8797 114.641 12.8797C114.932 12.8797 115.168 12.9599 115.348 13.1206C115.527 13.2812 115.618 13.5083 115.618 13.8019C115.618 14.0601 115.517 14.3625 115.316 14.7081C115.115 15.054 114.813 15.3856 114.407 15.7036C114.002 16.0215 113.493 16.285 112.88 16.4944C112.267 16.7045 111.563 16.809 110.766 16.809C108.945 16.809 107.528 16.285 106.517 15.2373C105.506 14.1897 105 12.768 105 10.9724C105 10.1274 105.125 9.34312 105.374 8.62034C105.624 7.89717 105.987 7.27734 106.465 6.76046C106.943 6.24358 107.532 5.84704 108.231 5.57122C108.931 5.29521 109.706 5.1573 110.558 5.1573C111.666 5.1573 112.617 5.39301 113.41 5.86462C114.203 6.33584 114.797 6.94574 115.192 7.69298C115.586 8.4406 115.784 9.20197 115.784 9.97728C115.784 10.6966 115.58 11.1631 115.171 11.3761C114.762 11.589 114.188 11.6956 113.446 11.6956ZM121.067 12.6732V15.0666C121.067 15.6473 120.932 16.0828 120.663 16.3733C120.394 16.6636 120.053 16.809 119.64 16.809C119.233 16.809 118.898 16.6619 118.636 16.3681C118.374 16.0742 118.243 15.6404 118.243 15.0664V7.08862C118.243 5.80101 118.702 5.1573 119.619 5.1573C120.088 5.1573 120.426 5.30782 120.632 5.60866C120.839 5.9097 120.953 6.3538 120.974 6.94173C121.312 6.3538 121.658 5.9097 122.013 5.60847C122.368 5.30782 122.842 5.1573 123.435 5.1573C124.028 5.1573 124.604 5.30782 125.162 5.60866C125.721 5.9097 126 6.30834 126 6.80535C126 7.15509 125.881 7.4439 125.643 7.67139C125.405 7.8987 125.149 8.01254 124.873 8.01254C124.769 8.01254 124.52 7.9476 124.123 7.81828C123.726 7.68878 123.376 7.62421 123.073 7.62421C122.659 7.62421 122.322 7.73424 122.06 7.95485C121.798 8.17509 121.594 8.50229 121.45 8.93608C121.305 9.37006 121.205 9.88617 121.149 10.4844C121.094 11.0829 121.067 11.8123 121.067 12.6732Z" fill="white"/>
<path fill-rule="evenodd" clip-rule="evenodd" d="M83.5171 7.76373C82.8847 6.48625 81.5206 4.96484 78.6109 4.96484C75.1714 4.96484 72.9208 7.79181 70.9338 10.2885C69.281 12.3654 67.7191 14.3278 65.866 14.3278C63.9582 14.3278 62.7869 12.3266 62.7869 10.8913C62.7869 9.56287 64.0766 7.63365 66.0966 7.63365C68.0543 7.63365 69.0987 9.25018 69.1403 9.31493C69.5171 9.93897 70.325 10.1357 70.9398 9.75426C71.5575 9.36975 71.7537 8.54726 71.3772 7.91654C71.1922 7.61417 69.4755 4.96484 66.0966 4.96484C62.5994 4.96484 60.1621 8.08883 60.1621 10.8913C60.1621 13.7796 62.5043 16.9986 65.8652 16.9986C68.9717 16.9986 71.0064 14.4421 72.9768 11.9646C74.7497 9.7386 76.425 7.63365 78.6109 7.63365C79.891 7.63365 80.7292 8.06935 81.1723 8.96366C81.5672 9.76324 81.5655 10.6786 81.5645 10.9807C81.5645 11.1582 81.4713 12.0542 81.0393 12.8641C80.5599 13.7638 79.8783 14.1838 78.8958 14.1838C76.8605 14.1838 75.7555 12.8309 75.3313 12.3125C75.2216 12.179 75.1361 12.0754 75.021 11.9753C74.7543 11.7433 74.419 11.6361 74.0654 11.6573C73.8933 11.6706 73.7254 11.7183 73.5716 11.7976C73.4178 11.8769 73.2812 11.9863 73.1696 12.1194C72.7178 12.6553 72.7551 13.4599 73.2699 13.9678L73.3191 14.0274C73.8901 14.7265 75.6276 16.8526 78.8951 16.8526C82.8951 16.8526 84.1891 12.8853 84.1891 10.9649C84.1901 9.74203 83.9638 8.66511 83.5171 7.76354" fill="#F67555"/>
<path d="M1.31838 4.76801H1.65103V2.94951C1.65103 2.46162 1.66212 2.08092 1.6843 1.80741C1.71387 1.5265 1.78779 1.28625 1.90607 1.08666C2.02434 0.879679 2.19436 0.713353 2.41613 0.587685C2.6379 0.454624 2.88554 0.388094 3.15905 0.388094C3.54345 0.388094 3.89089 0.532243 4.20136 0.820541C4.40835 1.01274 4.53771 1.24929 4.58946 1.5302C4.6486 1.80371 4.67816 2.1955 4.67816 2.70557V4.76801H5.787C6.21575 4.76801 6.54101 4.8715 6.76278 5.07848C6.99194 5.27807 7.10652 5.5368 7.10652 5.85467C7.10652 6.26124 6.94389 6.54585 6.61863 6.70848C6.30077 6.87111 5.84245 6.95242 5.24367 6.95242H4.67816V12.5188C4.67816 12.9919 4.69295 13.3578 4.72252 13.6165C4.75948 13.8679 4.84819 14.0749 4.98864 14.2375C5.13648 14.3927 5.37304 14.4703 5.6983 14.4703C5.87571 14.4703 6.11596 14.4408 6.41904 14.3816C6.72212 14.3151 6.95868 14.2818 7.1287 14.2818C7.37264 14.2818 7.59072 14.3816 7.78291 14.5812C7.9825 14.7734 8.0823 15.0137 8.0823 15.302C8.0823 15.7899 7.81618 16.1632 7.28394 16.4219C6.75169 16.6806 5.98659 16.81 4.98864 16.81C4.04243 16.81 3.32538 16.6511 2.83749 16.3332C2.3496 16.0153 2.02804 15.5755 1.8728 15.0137C1.72496 14.4519 1.65103 13.7016 1.65103 12.7627V6.95242H1.25185C0.815708 6.95242 0.483056 6.84893 0.253896 6.64195C0.0247363 6.43496 -0.0898438 6.17254 -0.0898438 5.85467C-0.0898438 5.5368 0.0284324 5.27807 0.264985 5.07848C0.508929 4.8715 0.860062 4.76801 1.31838 4.76801Z" fill="white"/>
<path d="M16.8532 15.1024C16.1214 15.6716 15.4117 16.1003 14.7242 16.3886C14.0442 16.6695 13.2791 16.81 12.4289 16.81C11.6528 16.81 10.969 16.6585 10.3776 16.3554C9.79361 16.0449 9.34268 15.6272 9.02481 15.1024C8.70695 14.5775 8.54801 14.0083 8.54801 13.3948C8.54801 12.5668 8.81044 11.8609 9.33529 11.2769C9.86014 10.6929 10.5809 10.3011 11.4975 10.1015C11.6897 10.0572 12.1665 9.95737 12.9279 9.80214C13.6893 9.6469 14.3398 9.50645 14.8795 9.38078C15.4265 9.24772 16.0179 9.08878 16.6536 8.90398C16.6167 8.10561 16.454 7.52163 16.1657 7.15201C15.8848 6.77501 15.2971 6.5865 14.4027 6.5865C13.6339 6.5865 13.0536 6.69369 12.6618 6.90807C12.2774 7.12244 11.9448 7.44401 11.6639 7.87276C11.3903 8.30151 11.1944 8.58611 11.0762 8.72656C10.9653 8.85962 10.7213 8.92615 10.3443 8.92615C10.0043 8.92615 9.7086 8.81897 9.45726 8.60459C9.21332 8.38282 9.09134 8.10192 9.09134 7.76187C9.09134 7.22963 9.27985 6.71217 9.65685 6.2095C10.0339 5.70682 10.6215 5.29286 11.4199 4.9676C12.2183 4.64234 13.2125 4.47971 14.4027 4.47971C15.7333 4.47971 16.7793 4.63864 17.5407 4.95651C18.3021 5.26699 18.838 5.76227 19.1485 6.44235C19.4664 7.12244 19.6253 8.0243 19.6253 9.14792C19.6253 9.85758 19.6216 10.46 19.6142 10.9553C19.6142 11.4506 19.6105 12.0013 19.6031 12.6075C19.6031 13.1767 19.6955 13.7718 19.8803 14.3927C20.0725 15.0063 20.1686 15.4018 20.1686 15.5792C20.1686 15.8897 20.0208 16.1743 19.7251 16.433C19.4368 16.6843 19.1079 16.81 18.7382 16.81C18.4278 16.81 18.121 16.6659 17.8179 16.3776C17.5148 16.0819 17.1933 15.6568 16.8532 15.1024ZM16.6536 10.7225C16.2101 10.8851 15.5633 11.0588 14.7132 11.2436C13.8704 11.421 13.2865 11.5541 12.9612 11.6428C12.6359 11.7241 12.3255 11.8905 12.0298 12.1418C11.7341 12.3857 11.5862 12.7295 11.5862 13.173C11.5862 13.6313 11.76 14.0231 12.1074 14.3484C12.4548 14.6662 12.9094 14.8252 13.4713 14.8252C14.07 14.8252 14.6208 14.6958 15.1234 14.4371C15.6335 14.171 16.0068 13.8309 16.2434 13.417C16.5169 12.9586 16.6536 12.2046 16.6536 11.1549V10.7225Z" fill="white"/>
<path d="M32.4546 12.8514C32.4546 13.6868 32.2513 14.4038 31.8447 15.0026C31.4381 15.594 30.8357 16.0449 30.0373 16.3554C29.2463 16.6585 28.2817 16.81 27.1432 16.81C26.0566 16.81 25.1252 16.6437 24.349 16.311C23.5728 15.9784 22.9999 15.5644 22.6303 15.0691C22.2607 14.5664 22.0758 14.0638 22.0758 13.5611C22.0758 13.2284 22.1941 12.9438 22.4307 12.7073C22.6672 12.4707 22.9666 12.3525 23.3288 12.3525C23.6467 12.3525 23.8906 12.4301 24.0607 12.5853C24.2307 12.7406 24.3933 12.9586 24.5486 13.2395C24.859 13.7792 25.2286 14.1821 25.6574 14.4482C26.0935 14.7143 26.6849 14.8474 27.4315 14.8474C28.0377 14.8474 28.533 14.7143 28.9174 14.4482C29.3092 14.1747 29.5051 13.8642 29.5051 13.5167C29.5051 12.9845 29.3018 12.5964 28.8952 12.3525C28.496 12.1085 27.8344 11.8757 26.9104 11.6539C25.8681 11.3952 25.018 11.1254 24.3601 10.8444C23.7095 10.5561 23.1884 10.1791 22.7966 9.71343C22.4048 9.24772 22.2089 8.67482 22.2089 7.99473C22.2089 7.38856 22.39 6.81566 22.7522 6.27603C23.1145 5.73639 23.6467 5.30764 24.349 4.98978C25.0586 4.66452 25.9124 4.50189 26.9104 4.50189C27.694 4.50189 28.3962 4.5832 29.0172 4.74583C29.6455 4.90846 30.1667 5.12653 30.5806 5.40005C31.002 5.67356 31.3199 5.97664 31.5342 6.30929C31.756 6.64195 31.8669 6.96721 31.8669 7.28507C31.8669 7.63251 31.7486 7.91711 31.5121 8.13888C31.2829 8.36065 30.954 8.47153 30.5252 8.47153C30.2147 8.47153 29.9486 8.38282 29.7268 8.20541C29.5125 8.028 29.2648 7.76187 28.9839 7.40704C28.7548 7.11135 28.4849 6.8748 28.1745 6.69739C27.864 6.51997 27.4426 6.43127 26.9104 6.43127C26.3634 6.43127 25.9087 6.54954 25.5465 6.7861C25.1843 7.01525 25.0032 7.30355 25.0032 7.65099C25.0032 7.96886 25.1362 8.23128 25.4024 8.43826C25.6685 8.63786 26.027 8.80418 26.4779 8.93724C26.9289 9.0703 27.5498 9.23293 28.3408 9.42513C29.2796 9.65429 30.0447 9.92781 30.6361 10.2457C31.2349 10.5635 31.6858 10.9405 31.9889 11.3767C32.2993 11.8054 32.4546 12.297 32.4546 12.8514Z" fill="white"/>
<path d="M42.5561 15.424L39.8838 11.0329L38.2427 12.5853V14.9915C38.2427 15.5755 38.0875 16.0264 37.777 16.3443C37.4739 16.6548 37.1228 16.81 36.7236 16.81C36.2579 16.81 35.892 16.6548 35.6259 16.3443C35.3597 16.0338 35.2267 15.5755 35.2267 14.9693V2.06244C35.2267 1.38974 35.356 0.879679 35.6148 0.532243C35.8735 0.177414 36.2431 0 36.7236 0C37.1893 0 37.5589 0.158934 37.8325 0.476801C38.106 0.794668 38.2427 1.26408 38.2427 1.88503V9.22554L41.6469 5.65508C42.0682 5.21154 42.3898 4.90846 42.6115 4.74583C42.8333 4.5832 43.1031 4.50189 43.421 4.50189C43.798 4.50189 44.1122 4.62386 44.3635 4.8678C44.6149 5.10436 44.7405 5.40374 44.7405 5.76596C44.7405 6.2095 44.3302 6.80088 43.5097 7.54011L41.9019 9.01486L45.0066 13.8938C45.2358 14.256 45.3984 14.5332 45.4945 14.7254C45.598 14.9102 45.6498 15.0876 45.6498 15.2576C45.6498 15.7381 45.5167 16.1188 45.2506 16.3997C44.9919 16.6732 44.6481 16.81 44.2194 16.81C43.8498 16.81 43.5652 16.7102 43.3656 16.5106C43.166 16.311 42.8962 15.9488 42.5561 15.424Z" fill="white"/>
</g>
<defs>
<clipPath id="clip0">
<rect width="126" height="17" fill="white"/>
</clipPath>
</defs>
</svg>
